<svg xmlns="http://www.w3.org/2000/svg" viewBox="0 0 128 128" role="img" aria-label="DM">
  <defs>
    <linearGradient id="g" x1="0" y1="0" x2="1" y2="1">
      <stop offset="0" stop-color="#0B0F1A"/>
      <stop offset="1" stop-color="#111827"/>
    </linearGradient>
  </defs>
  <rect width="128" height="128" rx="28" fill="url(#g)"/>
  <path d="M34 90V38h22.2c8.2 0 14.6 2.3 19.2 6.9 4.6 4.6 6.9 10.8 6.9 18.6 0 7.8-2.3 14-6.9 18.6-4.6 4.6-11 6.9-19.2 6.9H34Zm14.6-12.2h7.3c4.1 0 7.2-1.2 9.4-3.6 2.2-2.4 3.3-5.9 3.3-10.5 0-4.6-1.1-8.1-3.3-10.5-2.2-2.4-5.3-3.6-9.4-3.6h-7.3v28.2Z" fill="#F9FAFB"/>
  <path d="M78 90V38h16.2l11.2 28.7L116.6 38H128v52h-13.8V63.7l-9.8 23.8H98.1l-9.8-23.8V90H78Z" fill="#F9FAFB" opacity="0.96"/>
</svg>
